<mxfile host="app.diagrams.net" modified="2024-06-04T11:26:01.283Z" agent="Mozilla/5.0 (Windows NT 10.0; Win64; x64) AppleWebKit/537.36 (KHTML, like Gecko) Chrome/125.0.0.0 Safari/537.36" etag="mEFMPnEAKonWazHVyw9p" version="24.4.13" type="github">
  <diagram name="Current" id="WlEZwbyHO4XJa3ybnEBH">
    <mxGraphModel dx="1050" dy="661" grid="1" gridSize="10" guides="1" tooltips="1" connect="1" arrows="1" fold="1" page="1" pageScale="1" pageWidth="1100" pageHeight="850" math="0" shadow="0">
      <root>
        <mxCell id="0" />
        <mxCell id="1" parent="0" />
        <mxCell id="p-wekDUWxfodm1rAVu9g-1" value="" style="rounded=0;whiteSpace=wrap;html=1;" vertex="1" parent="1">
          <mxGeometry x="180" y="165" width="220" height="260" as="geometry" />
        </mxCell>
        <mxCell id="p-wekDUWxfodm1rAVu9g-2" value="" style="rounded=0;whiteSpace=wrap;html=1;" vertex="1" parent="1">
          <mxGeometry x="500" y="170" width="220" height="250" as="geometry" />
        </mxCell>
        <mxCell id="p-wekDUWxfodm1rAVu9g-3" value="" style="rounded=0;whiteSpace=wrap;html=1;" vertex="1" parent="1">
          <mxGeometry x="830" y="165" width="170" height="100" as="geometry" />
        </mxCell>
        <mxCell id="p-wekDUWxfodm1rAVu9g-38" style="edgeStyle=orthogonalEdgeStyle;rounded=0;orthogonalLoop=1;jettySize=auto;html=1;" edge="1" parent="1" source="p-wekDUWxfodm1rAVu9g-4" target="p-wekDUWxfodm1rAVu9g-37">
          <mxGeometry relative="1" as="geometry" />
        </mxCell>
        <mxCell id="p-wekDUWxfodm1rAVu9g-58" value="1" style="edgeLabel;html=1;align=center;verticalAlign=middle;resizable=0;points=[];fontSize=14;" vertex="1" connectable="0" parent="p-wekDUWxfodm1rAVu9g-38">
          <mxGeometry x="0.0165" y="-1" relative="1" as="geometry">
            <mxPoint as="offset" />
          </mxGeometry>
        </mxCell>
        <mxCell id="p-wekDUWxfodm1rAVu9g-75" style="edgeStyle=orthogonalEdgeStyle;rounded=0;orthogonalLoop=1;jettySize=auto;html=1;entryX=0.5;entryY=0;entryDx=0;entryDy=0;" edge="1" parent="1" source="p-wekDUWxfodm1rAVu9g-4" target="p-wekDUWxfodm1rAVu9g-37">
          <mxGeometry relative="1" as="geometry">
            <Array as="points">
              <mxPoint x="280" y="160" />
              <mxPoint x="570" y="160" />
            </Array>
          </mxGeometry>
        </mxCell>
        <mxCell id="p-wekDUWxfodm1rAVu9g-76" value="5" style="edgeLabel;html=1;align=center;verticalAlign=middle;resizable=0;points=[];fontSize=14;" vertex="1" connectable="0" parent="p-wekDUWxfodm1rAVu9g-75">
          <mxGeometry x="0.0251" y="-2" relative="1" as="geometry">
            <mxPoint as="offset" />
          </mxGeometry>
        </mxCell>
        <mxCell id="p-wekDUWxfodm1rAVu9g-4" value="New Product" style="rounded=0;whiteSpace=wrap;html=1;" vertex="1" parent="1">
          <mxGeometry x="220" y="190" width="120" height="40" as="geometry" />
        </mxCell>
        <mxCell id="p-wekDUWxfodm1rAVu9g-5" value="ESGK (Service Now)" style="text;html=1;align=center;verticalAlign=middle;whiteSpace=wrap;rounded=0;" vertex="1" parent="1">
          <mxGeometry x="210" y="130" width="140" height="30" as="geometry" />
        </mxCell>
        <mxCell id="p-wekDUWxfodm1rAVu9g-6" value="S4 Hana" style="text;html=1;align=center;verticalAlign=middle;whiteSpace=wrap;rounded=0;" vertex="1" parent="1">
          <mxGeometry x="580" y="130" width="60" height="30" as="geometry" />
        </mxCell>
        <mxCell id="p-wekDUWxfodm1rAVu9g-7" value="Capps" style="text;html=1;align=center;verticalAlign=middle;whiteSpace=wrap;rounded=0;" vertex="1" parent="1">
          <mxGeometry x="885" y="130" width="60" height="30" as="geometry" />
        </mxCell>
        <mxCell id="p-wekDUWxfodm1rAVu9g-30" value="" style="image;aspect=fixed;html=1;points=[];align=center;fontSize=12;image=img/lib/azure2/ai_machine_learning/Form_Recognizers.svg;" vertex="1" parent="1">
          <mxGeometry x="50" y="230" width="63.2" height="68" as="geometry" />
        </mxCell>
        <mxCell id="p-wekDUWxfodm1rAVu9g-31" value="" style="image;aspect=fixed;perimeter=ellipsePerimeter;html=1;align=center;shadow=0;dashed=0;spacingTop=3;image=img/lib/active_directory/user_accounts.svg;" vertex="1" parent="1">
          <mxGeometry x="56.6" y="390" width="50" height="48.5" as="geometry" />
        </mxCell>
        <mxCell id="p-wekDUWxfodm1rAVu9g-32" style="edgeStyle=orthogonalEdgeStyle;rounded=0;orthogonalLoop=1;jettySize=auto;html=1;entryX=0.513;entryY=0.926;entryDx=0;entryDy=0;entryPerimeter=0;" edge="1" parent="1" source="p-wekDUWxfodm1rAVu9g-31" target="p-wekDUWxfodm1rAVu9g-30">
          <mxGeometry relative="1" as="geometry" />
        </mxCell>
        <mxCell id="p-wekDUWxfodm1rAVu9g-35" value="" style="endArrow=classic;html=1;rounded=0;entryX=0;entryY=0.5;entryDx=0;entryDy=0;" edge="1" parent="1" source="p-wekDUWxfodm1rAVu9g-30" target="p-wekDUWxfodm1rAVu9g-4">
          <mxGeometry width="50" height="50" relative="1" as="geometry">
            <mxPoint x="450" y="270" as="sourcePoint" />
            <mxPoint x="500" y="220" as="targetPoint" />
            <Array as="points">
              <mxPoint x="80" y="210" />
            </Array>
          </mxGeometry>
        </mxCell>
        <mxCell id="p-wekDUWxfodm1rAVu9g-40" style="edgeStyle=orthogonalEdgeStyle;rounded=0;orthogonalLoop=1;jettySize=auto;html=1;entryX=0.5;entryY=1;entryDx=0;entryDy=0;" edge="1" parent="1" source="p-wekDUWxfodm1rAVu9g-37" target="p-wekDUWxfodm1rAVu9g-4">
          <mxGeometry relative="1" as="geometry">
            <Array as="points">
              <mxPoint x="570" y="250" />
              <mxPoint x="280" y="250" />
            </Array>
          </mxGeometry>
        </mxCell>
        <mxCell id="p-wekDUWxfodm1rAVu9g-59" value="3" style="edgeLabel;html=1;align=center;verticalAlign=middle;resizable=0;points=[];fontSize=14;" vertex="1" connectable="0" parent="p-wekDUWxfodm1rAVu9g-40">
          <mxGeometry x="-0.0024" y="-1" relative="1" as="geometry">
            <mxPoint as="offset" />
          </mxGeometry>
        </mxCell>
        <mxCell id="p-wekDUWxfodm1rAVu9g-37" value="" style="rounded=1;whiteSpace=wrap;html=1;" vertex="1" parent="1">
          <mxGeometry x="510" y="190" width="120" height="40" as="geometry" />
        </mxCell>
        <mxCell id="p-wekDUWxfodm1rAVu9g-39" value="WebForm validates the input" style="text;html=1;align=center;verticalAlign=middle;whiteSpace=wrap;rounded=0;" vertex="1" parent="1">
          <mxGeometry x="116" y="320" width="73" height="60" as="geometry" />
        </mxCell>
        <mxCell id="p-wekDUWxfodm1rAVu9g-43" value="2" style="ellipse;whiteSpace=wrap;html=1;" vertex="1" parent="1">
          <mxGeometry x="595" y="195" width="30" height="30" as="geometry" />
        </mxCell>
        <mxCell id="p-wekDUWxfodm1rAVu9g-45" value="4" style="ellipse;whiteSpace=wrap;html=1;" vertex="1" parent="1">
          <mxGeometry x="230" y="240" width="30" height="30" as="geometry" />
        </mxCell>
        <mxCell id="p-wekDUWxfodm1rAVu9g-47" value="PAT" style="rounded=0;whiteSpace=wrap;html=1;" vertex="1" parent="1">
          <mxGeometry x="520" y="290" width="70" height="30" as="geometry" />
        </mxCell>
        <mxCell id="p-wekDUWxfodm1rAVu9g-49" value="MA" style="rounded=0;whiteSpace=wrap;html=1;" vertex="1" parent="1">
          <mxGeometry x="200" y="290" width="40" height="30" as="geometry" />
        </mxCell>
        <mxCell id="p-wekDUWxfodm1rAVu9g-55" style="edgeStyle=orthogonalEdgeStyle;rounded=0;orthogonalLoop=1;jettySize=auto;html=1;" edge="1" parent="1" source="p-wekDUWxfodm1rAVu9g-50" target="p-wekDUWxfodm1rAVu9g-47">
          <mxGeometry relative="1" as="geometry" />
        </mxCell>
        <mxCell id="p-wekDUWxfodm1rAVu9g-60" value="&lt;font style=&quot;font-size: 14px;&quot;&gt;7&lt;/font&gt;" style="edgeLabel;html=1;align=center;verticalAlign=middle;resizable=0;points=[];" vertex="1" connectable="0" parent="p-wekDUWxfodm1rAVu9g-55">
          <mxGeometry x="0.195" y="-1" relative="1" as="geometry">
            <mxPoint as="offset" />
          </mxGeometry>
        </mxCell>
        <mxCell id="p-wekDUWxfodm1rAVu9g-50" value="BE&lt;div&gt;NL&lt;/div&gt;" style="rounded=0;whiteSpace=wrap;html=1;" vertex="1" parent="1">
          <mxGeometry x="250" y="290" width="30" height="30" as="geometry" />
        </mxCell>
        <mxCell id="p-wekDUWxfodm1rAVu9g-53" value="SAC" style="rounded=1;whiteSpace=wrap;html=1;arcSize=50;" vertex="1" parent="1">
          <mxGeometry x="205" y="335" width="80" height="30" as="geometry" />
        </mxCell>
        <mxCell id="p-wekDUWxfodm1rAVu9g-61" value="SAC" style="rounded=1;whiteSpace=wrap;html=1;arcSize=50;" vertex="1" parent="1">
          <mxGeometry x="515" y="350" width="80" height="30" as="geometry" />
        </mxCell>
        <mxCell id="p-wekDUWxfodm1rAVu9g-69" style="edgeStyle=orthogonalEdgeStyle;rounded=0;orthogonalLoop=1;jettySize=auto;html=1;" edge="1" parent="1" source="p-wekDUWxfodm1rAVu9g-62" target="p-wekDUWxfodm1rAVu9g-64">
          <mxGeometry relative="1" as="geometry">
            <Array as="points">
              <mxPoint x="340" y="460" />
              <mxPoint x="610" y="460" />
              <mxPoint x="610" y="275" />
            </Array>
          </mxGeometry>
        </mxCell>
        <mxCell id="p-wekDUWxfodm1rAVu9g-70" value="&lt;font style=&quot;font-size: 14px;&quot;&gt;9&lt;/font&gt;" style="edgeLabel;html=1;align=center;verticalAlign=middle;resizable=0;points=[];" vertex="1" connectable="0" parent="p-wekDUWxfodm1rAVu9g-69">
          <mxGeometry x="-0.017" y="-2" relative="1" as="geometry">
            <mxPoint as="offset" />
          </mxGeometry>
        </mxCell>
        <mxCell id="p-wekDUWxfodm1rAVu9g-71" style="edgeStyle=orthogonalEdgeStyle;rounded=0;orthogonalLoop=1;jettySize=auto;html=1;entryX=1;entryY=0.5;entryDx=0;entryDy=0;exitX=0.67;exitY=-0.025;exitDx=0;exitDy=0;exitPerimeter=0;" edge="1" parent="1" source="p-wekDUWxfodm1rAVu9g-62" target="p-wekDUWxfodm1rAVu9g-37">
          <mxGeometry relative="1" as="geometry">
            <Array as="points">
              <mxPoint x="360" y="500" />
              <mxPoint x="750" y="500" />
              <mxPoint x="750" y="210" />
            </Array>
          </mxGeometry>
        </mxCell>
        <mxCell id="p-wekDUWxfodm1rAVu9g-72" value="10" style="edgeLabel;html=1;align=center;verticalAlign=middle;resizable=0;points=[];fontSize=13;" vertex="1" connectable="0" parent="p-wekDUWxfodm1rAVu9g-71">
          <mxGeometry x="0.3207" relative="1" as="geometry">
            <mxPoint as="offset" />
          </mxGeometry>
        </mxCell>
        <mxCell id="p-wekDUWxfodm1rAVu9g-80" style="edgeStyle=orthogonalEdgeStyle;rounded=0;orthogonalLoop=1;jettySize=auto;html=1;exitX=0.25;exitY=0;exitDx=0;exitDy=0;entryX=0;entryY=0.5;entryDx=0;entryDy=0;" edge="1" parent="1" source="p-wekDUWxfodm1rAVu9g-62" target="p-wekDUWxfodm1rAVu9g-61">
          <mxGeometry relative="1" as="geometry">
            <Array as="points">
              <mxPoint x="310" y="440" />
              <mxPoint x="440" y="440" />
              <mxPoint x="440" y="365" />
            </Array>
          </mxGeometry>
        </mxCell>
        <mxCell id="p-wekDUWxfodm1rAVu9g-81" value="&lt;font style=&quot;font-size: 14px;&quot;&gt;8&lt;/font&gt;" style="edgeLabel;html=1;align=center;verticalAlign=middle;resizable=0;points=[];" vertex="1" connectable="0" parent="p-wekDUWxfodm1rAVu9g-80">
          <mxGeometry x="0.0108" relative="1" as="geometry">
            <mxPoint as="offset" />
          </mxGeometry>
        </mxCell>
        <mxCell id="p-wekDUWxfodm1rAVu9g-62" value="TCE" style="rounded=0;whiteSpace=wrap;html=1;" vertex="1" parent="1">
          <mxGeometry x="280" y="530" width="120" height="40" as="geometry" />
        </mxCell>
        <mxCell id="p-wekDUWxfodm1rAVu9g-63" value="R&amp;amp;D" style="text;html=1;align=center;verticalAlign=middle;whiteSpace=wrap;rounded=0;" vertex="1" parent="1">
          <mxGeometry x="310" y="580" width="60" height="30" as="geometry" />
        </mxCell>
        <mxCell id="p-wekDUWxfodm1rAVu9g-64" value="SPEC" style="rounded=0;whiteSpace=wrap;html=1;" vertex="1" parent="1">
          <mxGeometry x="630" y="260" width="70" height="30" as="geometry" />
        </mxCell>
        <mxCell id="p-wekDUWxfodm1rAVu9g-77" style="edgeStyle=orthogonalEdgeStyle;rounded=0;orthogonalLoop=1;jettySize=auto;html=1;" edge="1" parent="1" source="p-wekDUWxfodm1rAVu9g-66" target="p-wekDUWxfodm1rAVu9g-68">
          <mxGeometry relative="1" as="geometry" />
        </mxCell>
        <mxCell id="p-wekDUWxfodm1rAVu9g-78" value="&lt;font style=&quot;font-size: 14px;&quot;&gt;11&lt;/font&gt;" style="edgeLabel;html=1;align=center;verticalAlign=middle;resizable=0;points=[];" vertex="1" connectable="0" parent="p-wekDUWxfodm1rAVu9g-77">
          <mxGeometry x="0.0297" relative="1" as="geometry">
            <mxPoint as="offset" />
          </mxGeometry>
        </mxCell>
        <mxCell id="p-wekDUWxfodm1rAVu9g-66" value="BCJ" style="rounded=0;whiteSpace=wrap;html=1;" vertex="1" parent="1">
          <mxGeometry x="605" y="530" width="120" height="40" as="geometry" />
        </mxCell>
        <mxCell id="p-wekDUWxfodm1rAVu9g-68" value="BST" style="rounded=0;whiteSpace=wrap;html=1;" vertex="1" parent="1">
          <mxGeometry x="630" y="330" width="70" height="30" as="geometry" />
        </mxCell>
        <mxCell id="p-wekDUWxfodm1rAVu9g-73" value="6" style="ellipse;whiteSpace=wrap;html=1;" vertex="1" parent="1">
          <mxGeometry x="670" y="130" width="30" height="30" as="geometry" />
        </mxCell>
        <mxCell id="p-wekDUWxfodm1rAVu9g-79" value="Mapping to other product" style="text;html=1;align=center;verticalAlign=middle;whiteSpace=wrap;rounded=0;" vertex="1" parent="1">
          <mxGeometry x="588" y="580" width="165" height="30" as="geometry" />
        </mxCell>
        <mxCell id="p-wekDUWxfodm1rAVu9g-82" value="" style="shape=flexArrow;endArrow=classic;html=1;rounded=0;exitX=1.002;exitY=0.079;exitDx=0;exitDy=0;exitPerimeter=0;entryX=0;entryY=0.25;entryDx=0;entryDy=0;" edge="1" parent="1" source="p-wekDUWxfodm1rAVu9g-2" target="p-wekDUWxfodm1rAVu9g-3">
          <mxGeometry width="50" height="50" relative="1" as="geometry">
            <mxPoint x="610" y="460" as="sourcePoint" />
            <mxPoint x="660" y="410" as="targetPoint" />
            <Array as="points">
              <mxPoint x="800" y="190" />
            </Array>
          </mxGeometry>
        </mxCell>
        <mxCell id="p-wekDUWxfodm1rAVu9g-84" value="12" style="text;html=1;align=center;verticalAlign=middle;resizable=0;points=[];autosize=1;strokeColor=none;fillColor=none;fontSize=15;" vertex="1" parent="1">
          <mxGeometry x="753" y="160" width="40" height="30" as="geometry" />
        </mxCell>
        <mxCell id="p-wekDUWxfodm1rAVu9g-85" value="" style="outlineConnect=0;dashed=0;verticalLabelPosition=bottom;verticalAlign=top;align=center;html=1;shape=mxgraph.aws3.reported_state;fillColor=#5294CF;gradientColor=none;" vertex="1" parent="1">
          <mxGeometry x="840" y="190" width="60" height="63" as="geometry" />
        </mxCell>
        <mxCell id="p-wekDUWxfodm1rAVu9g-86" value="" style="verticalLabelPosition=bottom;sketch=0;aspect=fixed;html=1;verticalAlign=top;strokeColor=none;align=center;outlineConnect=0;shape=mxgraph.citrix.reporting;" vertex="1" parent="1">
          <mxGeometry x="920" y="190" width="61.5" height="69" as="geometry" />
        </mxCell>
        <mxCell id="p-wekDUWxfodm1rAVu9g-87" value="Analytics Use cases" style="text;html=1;align=center;verticalAlign=middle;whiteSpace=wrap;rounded=0;" vertex="1" parent="1">
          <mxGeometry x="835" y="290" width="165" height="30" as="geometry" />
        </mxCell>
        <mxCell id="p-wekDUWxfodm1rAVu9g-88" value="&lt;ol&gt;&lt;li&gt;Record created on ESGK using a webform in Service now with validations. with 28 product attributes.&lt;/li&gt;&lt;li&gt;Product lands in S4 Hana and Product Code is created in SAP (IPC)&lt;/li&gt;&lt;li&gt;Product is enriched with Product code in ESGK&lt;/li&gt;&lt;li&gt;Enrichment in ESGK with the SAP code&lt;/li&gt;&lt;li&gt;Product data propagate to S4 again&lt;/li&gt;&lt;li&gt;-&lt;/li&gt;&lt;li&gt;Product code is mapped with local vs global&lt;/li&gt;&lt;li&gt;Product code mapped in S4&lt;/li&gt;&lt;li&gt;Product Specification is mapped&lt;/li&gt;&lt;li&gt;Product level is mapped&lt;/li&gt;&lt;li&gt;Product is mapped with another product&lt;/li&gt;&lt;/ol&gt;" style="text;html=1;align=left;verticalAlign=middle;whiteSpace=wrap;rounded=0;" vertex="1" parent="1">
          <mxGeometry x="320" y="670" width="550" height="190" as="geometry" />
        </mxCell>
      </root>
    </mxGraphModel>
  </diagram>
</mxfile>
